<svg width="882" height="667" viewBox="0 0 882 667" fill="none" xmlns="http://www.w3.org/2000/svg">
<path fill-rule="evenodd" clip-rule="evenodd" d="M451.944 38.3108C536.716 38.4767 625.6 -27.7279 698.698 13.5534C771.694 54.7771 766.566 156.315 796.027 232.628C827.187 313.341 904.059 390.865 875.915 472.596C847.772 554.328 744.862 584.695 662.879 619.305C596.053 647.515 524.718 646.281 451.944 651.576C371.712 657.414 290.075 683.032 216.467 651.785C133.815 616.699 64.1691 552.328 29.3251 472.173C-7.16101 388.24 -9.8612 291.434 22.6882 206.017C54.5616 122.375 118.632 46.1177 204.459 12.586C283.26 -18.201 366.887 38.1443 451.944 38.3108Z" fill="#FFF7F7"/>
</svg>
