<svg width="526" height="406" viewBox="0 0 526 406" fill="none" xmlns="http://www.w3.org/2000/svg">
<g clip-path="url(#clip0)">
<path opacity="0.1" d="M517.377 180.789C517.283 181.365 517.188 181.941 517.084 182.517C513.717 202.133 508.219 221.044 500.044 238.407C499.776 238.983 499.503 239.559 499.225 240.135C493.979 251.083 487.537 261.371 480.025 270.798C475.953 275.884 471.513 280.714 466.234 284.201C458.834 289.087 450.183 291.072 441.68 292.697C432.845 294.389 423.896 295.783 414.966 297.326C411.801 297.861 408.656 298.421 405.53 299.008C396.904 300.623 388.342 302.49 379.983 304.963C369.649 308.049 359.622 312.025 350.185 317.656C349.431 318.102 348.684 318.56 347.946 319.03C347.206 319.493 346.456 319.966 345.736 320.449C345.016 320.933 344.29 321.411 343.575 321.9L342.473 322.671C342.11 322.918 341.753 323.185 341.395 323.432C340.332 324.183 339.284 324.975 338.237 325.736L338.197 325.767C337.506 326.281 336.821 326.796 336.136 327.31C332.267 330.278 328.483 333.384 324.713 336.501L322.334 338.471C321.106 339.479 319.878 340.485 318.649 341.49C317.929 342.081 317.199 342.667 316.474 343.254C315.948 343.68 315.426 344.107 314.89 344.529C312.203 346.674 309.481 348.772 306.705 350.778C306.045 351.256 305.374 351.734 304.719 352.203C299.162 356.139 293.251 359.511 287.068 362.273L286.989 362.309C283.944 363.653 280.81 364.772 277.613 365.657C275.78 366.171 273.947 366.577 272.09 366.896C267.142 367.783 262.091 367.873 257.116 367.164C247.338 365.729 238.175 360.992 228.421 359.408C208.297 356.173 188.755 366.608 169.818 374.801C165.183 376.81 160.497 378.696 155.759 380.459C152.62 381.631 149.466 382.747 146.298 383.807C126.994 390.272 107.104 394.679 86.9353 396.958C78.7011 397.888 70.1143 398.331 61.7312 397.662C58.5654 397.421 55.4152 396.997 52.2952 396.392C41.6821 394.335 31.7743 389.968 23.7934 381.991C17.1633 375.465 12.4851 366.932 8.91923 358.03C7.48562 354.453 6.22252 350.795 5.12992 347.054C3.41257 341.192 2.12267 335.204 1.27109 329.141C1.0774 327.773 0.903579 326.4 0.774454 325.027C0.516205 322.671 0.324172 320.305 0.198358 317.929C-0.496987 305.301 0.694055 292.637 3.72942 280.385C7.11149 266.812 12.7532 253.816 15.2364 240.114C15.3407 239.538 15.4351 238.962 15.5294 238.386C15.8605 236.329 16.1121 234.234 16.2843 232.102C17.5358 215.345 12.6936 198.944 8.86957 182.517C8.73548 181.941 8.60139 181.365 8.47226 180.789C8.0584 178.968 7.66606 177.146 7.29524 175.322C3.75425 157.949 2.78582 139.356 5.9295 122.019C6.02883 121.443 6.14306 120.862 6.25728 120.291C8.3779 109.552 12.1225 99.3382 17.8586 90.2402C23.7437 80.9003 31.4713 73.1292 39.7105 66.2992C43.7332 62.9733 47.8933 59.8617 52.1909 56.9645C55.2799 54.8867 58.4253 52.9203 61.6269 51.0654C87.4965 36.1505 117.011 28.8627 146.194 30.4931C147.74 30.5754 149.283 30.6851 150.822 30.8222C152.438 30.9663 154.049 31.1377 155.654 31.3366C174.442 33.5841 192.723 39.154 210.895 45.2486C216.984 47.3058 223.057 49.363 229.131 51.4202C231.833 52.3323 234.533 53.2323 237.231 54.1204C250.467 58.4457 263.92 62.3493 277.498 65.2911C280.647 65.9769 283.792 66.6026 286.934 67.1683C297.858 69.1948 308.912 70.3741 320.005 70.6965C324.309 70.8062 328.613 70.7599 332.918 70.5576C335.093 70.4548 337.27 70.3039 339.448 70.105C361.951 68.1095 383.649 61.4184 405.436 55.1335C408.585 54.2232 411.738 53.318 414.872 52.4437C419.014 51.2917 423.161 50.1756 427.323 49.147C453.237 42.7027 476.33 46.4058 500.422 59.6955C505.885 62.7144 511.348 66.3557 514.725 71.9925C518.102 77.6293 518.921 84.6085 519.547 91.3253C520.431 100.881 521.037 110.571 521.231 120.301C521.231 120.877 521.231 121.453 521.266 122.029C521.703 141.733 520.545 161.585 517.377 180.789Z" fill="#AD3637"/>
<path opacity="0.1" d="M345.498 238.407H343.804V239.174V240.135H345.721L345.498 238.407ZM326.303 238.407C326.3 238.421 326.3 238.435 326.303 238.449L326.154 239.878V240.007V240.135H340.854V240.033L341.902 238.407H326.303ZM286.994 238.407V182.518H303.88C303.701 182.363 303.517 182.209 303.328 182.065L303.08 181.87C302.976 181.782 302.871 181.7 302.762 181.623C302.653 181.545 302.395 181.35 302.201 181.216C302.007 181.083 301.888 180.995 301.704 180.887L301.59 180.81H301.565H286.994V177.75L286.602 177.945L286.185 178.187H286.155L286.065 178.244L285.807 178.419C285.718 178.475 285.628 178.532 285.544 178.593C285.286 178.773 285.047 178.969 284.774 179.169L284.526 179.375C284.357 179.509 284.198 179.648 284.029 179.787C283.369 180.347 282.718 180.933 282.043 181.473C281.874 181.612 281.705 181.746 281.546 181.875C281.185 182.148 280.81 182.403 280.424 182.636C280.263 182.739 280.097 182.834 279.927 182.919L279.649 183.052L279.396 183.166C278.799 183.426 278.181 183.629 277.548 183.772V238.407H252.22C252.22 238.469 252.255 238.526 252.269 238.587C252.409 239.102 252.548 239.616 252.682 240.13H277.553V300.042H277.94L278.382 300.073L279.187 300.135L280.488 300.268L281.074 300.34L281.72 300.423H281.814C282.187 300.474 282.564 300.536 282.947 300.598L283.19 300.639L283.736 300.731L284.521 300.875L286.403 300.772L286.661 300.829C286.766 300.829 286.87 300.87 286.979 300.896V240.135H326.119V240.007V239.878L326.268 238.449C326.266 238.435 326.266 238.421 326.268 238.407H286.994ZM345.498 238.407H343.804V239.174V240.135H345.721L345.498 238.407ZM325.245 238.407L325.076 240.135H341.43L342.543 238.407H325.245ZM287.004 238.407V182.518H303.89C303.711 182.363 303.527 182.209 303.338 182.065L303.09 181.87C302.986 181.782 302.881 181.7 302.772 181.623C302.663 181.545 302.405 181.35 302.211 181.216C302.017 181.083 301.898 180.995 301.714 180.887L301.6 180.81H301.565H286.994V177.75L286.602 177.945L286.185 178.187H286.155L286.065 178.244L285.807 178.419C285.718 178.475 285.628 178.532 285.544 178.593C285.286 178.773 285.047 178.969 284.774 179.169L284.526 179.375C284.357 179.509 284.198 179.648 284.029 179.787C283.369 180.347 282.718 180.933 282.043 181.473C281.874 181.612 281.705 181.746 281.546 181.875C281.185 182.148 280.81 182.403 280.424 182.636C280.263 182.739 280.097 182.834 279.927 182.919L279.649 183.052L279.396 183.166C278.799 183.426 278.181 183.629 277.548 183.772V238.407H252.22C252.22 238.469 252.255 238.526 252.269 238.587C252.409 239.102 252.553 239.616 252.687 240.13H277.553V300.037L277.94 300.063L278.382 300.094L279.187 300.155L280.488 300.289L281.074 300.361L281.72 300.443H281.814C282.187 300.495 282.564 300.556 282.947 300.618L283.19 300.659L283.736 300.752L284.521 300.896L286.403 300.793L286.661 300.85C286.766 300.85 286.87 300.891 286.979 300.916V240.135H325.076L325.255 238.407H287.004ZM414.967 122.019H521.361C521.361 121.443 521.361 120.867 521.326 120.291H414.967V52.4336C411.808 53.3079 408.655 54.2131 405.531 55.1234V120.291H289.815L289.522 119.962L289.964 119.448L333.002 70.5321C328.698 70.7378 324.394 70.7841 320.09 70.671L286.994 108.267V67.1582C283.835 66.5925 280.69 65.9668 277.558 65.281V106.374L229.171 51.4101C223.097 49.3529 217.023 47.2597 210.935 45.2384L276.704 119.962L276.411 120.291H155.694V31.3161C154.085 31.1275 152.474 30.9561 150.862 30.8018C149.322 30.6612 147.779 30.5515 146.233 30.4727V120.291H61.6663V51.0655C58.458 52.9171 55.3127 54.8834 52.2302 56.9647V120.291H6.23696C6.12273 120.862 6.00851 121.443 5.90918 122.019H52.1905V180.789H8.47181C8.60094 181.365 8.73503 181.942 8.86912 182.518H52.2104V238.407H15.5141C15.4197 238.983 15.3254 239.559 15.2211 240.135H52.2104V396.408C55.3304 397.013 58.4807 397.437 61.6464 397.678V240.135H146.233V383.823C149.405 382.757 152.559 381.64 155.694 380.475V240.135H277.538V365.678C280.736 364.793 283.869 363.674 286.915 362.33L286.994 362.294V240.135H405.501V299.008C408.643 298.422 411.788 297.861 414.937 297.327V240.135H499.201C499.479 239.559 499.752 238.983 500.02 238.407H414.967V182.518H517.09C517.194 181.942 517.288 181.365 517.383 180.789H414.967V122.019ZM61.6712 122.019H146.233V180.789H61.6663L61.6712 122.019ZM61.6712 238.407V182.518H146.233V238.407H61.6712ZM155.699 122.019H277.538V180.789H155.694L155.699 122.019ZM155.699 238.407V182.518H277.538V238.407H155.699ZM405.506 238.407H286.994V182.518H405.501L405.506 238.407ZM405.506 180.805H286.994V123.593L288.658 122.019H405.501L405.506 180.805ZM326.308 238.407C326.305 238.421 326.305 238.435 326.308 238.449L326.159 239.878V240.007V240.135H340.859V240.033L341.907 238.407H326.308ZM345.503 238.407H343.809V239.174V240.135H345.726L345.503 238.407ZM286.999 238.407V182.518H303.885C303.706 182.363 303.522 182.209 303.333 182.065L303.085 181.87C302.981 181.782 302.876 181.7 302.767 181.623C302.658 181.545 302.4 181.35 302.206 181.216C302.012 181.083 301.893 180.995 301.709 180.887L301.595 180.81H301.57H286.994V177.75L286.602 177.945L286.185 178.187H286.155L286.065 178.244L285.807 178.419C285.718 178.475 285.628 178.532 285.544 178.593C285.286 178.773 285.047 178.969 284.774 179.169L284.526 179.375C284.357 179.509 284.198 179.648 284.029 179.787C283.369 180.347 282.718 180.933 282.043 181.473C281.874 181.612 281.705 181.746 281.546 181.875C281.185 182.148 280.81 182.403 280.424 182.636C280.263 182.739 280.097 182.834 279.927 182.919L279.649 183.052L279.396 183.166C278.799 183.426 278.181 183.629 277.548 183.772V238.407H252.22C252.22 238.469 252.255 238.526 252.269 238.587C252.409 239.102 252.548 239.616 252.682 240.13H277.553V300.042H277.94L278.382 300.073L279.187 300.135L280.488 300.268L281.074 300.34L281.72 300.423H281.814C282.187 300.474 282.564 300.536 282.947 300.598L283.19 300.639L283.736 300.731L284.521 300.875L286.403 300.772L286.661 300.829C286.766 300.829 286.87 300.87 286.979 300.896V240.135H326.119V240.007V239.878L326.268 238.449C326.266 238.435 326.266 238.421 326.268 238.407H286.999Z" fill="#AD3637"/>
<path opacity="0.1" d="M102.326 81.554H103.081C102.823 81.3992 102.605 81.1805 102.449 80.9176C102.292 80.6546 102.2 80.3556 102.182 80.0471C102.182 78.8539 103.592 77.8818 105.316 77.8818H127.242C128.966 77.8818 130.376 78.8539 130.376 80.0471C130.376 81.2351 128.966 82.2123 127.242 82.2123H126.512C126.769 82.3681 126.985 82.5871 127.141 82.8499C127.297 83.1127 127.388 83.4113 127.406 83.7192C127.406 84.7478 126.383 85.5913 125.012 85.8227H131.325C133.043 85.8227 134.453 86.7948 134.453 87.988C134.453 89.1812 133.043 90.1481 131.325 90.1481H109.373C107.655 90.1481 106.245 89.176 106.245 87.988C106.245 86.9594 107.268 86.1159 108.638 85.8845H102.326C100.608 85.8845 99.1973 84.9124 99.1973 83.7192C99.1973 82.526 100.598 81.554 102.326 81.554Z" fill="#AD3637"/>
<path opacity="0.1" d="M339.975 102.162H340.71C340.452 102.007 340.234 101.787 340.077 101.523C339.921 101.26 339.829 100.96 339.812 100.65C339.812 99.4623 341.222 98.4902 342.945 98.4902H364.872C366.595 98.4902 368.005 99.4623 368.005 100.65C368.005 101.844 366.595 102.816 364.872 102.816H364.142C364.399 102.972 364.615 103.192 364.771 103.456C364.927 103.72 365.018 104.019 365.036 104.328C365.036 105.356 364.013 106.195 362.642 106.426H368.954C370.672 106.426 372.083 107.403 372.083 108.591C372.083 109.779 370.672 110.757 368.954 110.757H347.033C345.314 110.757 343.904 109.784 343.904 108.591C343.904 107.563 344.927 106.719 346.298 106.493H339.975C338.257 106.493 336.847 105.516 336.847 104.328C336.847 103.14 338.267 102.162 339.975 102.162Z" fill="#AD3637"/>
<path opacity="0.1" d="M68.6893 190.35H69.4244C69.1669 190.194 68.9506 189.974 68.7947 189.71C68.6388 189.446 68.548 189.147 68.5304 188.838C68.5304 187.65 69.9359 186.673 71.6592 186.673H93.5856C95.3089 186.673 96.7194 187.65 96.7194 188.838C96.7194 190.031 95.3089 191.003 93.5856 191.003H92.8555C93.113 191.16 93.3293 191.38 93.4852 191.644C93.6411 191.907 93.7319 192.207 93.7495 192.515C93.7495 193.544 92.7264 194.382 91.3557 194.614H97.6679C99.3912 194.614 100.797 195.586 100.797 196.779C100.797 197.972 99.3912 198.944 97.6679 198.944H75.7366C74.0182 198.944 72.6078 197.967 72.6078 196.779C72.6078 195.75 73.6358 194.907 75.0016 194.675H68.6893C66.971 194.675 65.5605 193.703 65.5605 192.515C65.5605 191.327 66.971 190.35 68.6893 190.35Z" fill="#AD3637"/>
<path d="M322.275 338.492C321.047 339.5 319.819 340.507 318.59 341.511C317.87 342.103 317.14 342.689 316.415 343.275C315.888 343.702 315.367 344.129 314.831 344.551C312.144 346.695 309.422 348.794 306.646 350.8C305.985 351.278 305.315 351.756 304.659 352.224C299.102 356.161 293.191 359.533 287.008 362.294L286.929 362.33V338.492H322.275Z" fill="#65617D"/>
<path d="M377.541 244.806L378.097 227.037C377.764 226.769 377.427 226.522 377.104 226.276C377.241 220.978 376.949 215.677 376.23 210.43C373.985 192.66 359.409 192.275 355.297 195.942C354.752 196.429 354.157 196.853 353.524 197.207C353.896 194.671 354.358 192.131 354.691 189.621C356.489 176.084 353.698 160.856 343.556 152.107C339.31 148.45 334.12 146.203 329.457 143.143C321.103 137.686 314.503 129.627 306.055 124.314C297.608 119.001 285.743 117.011 278.373 123.841C275.517 126.484 273.675 130.151 270.745 132.702C265.282 137.454 256.764 137.768 251.997 143.076C251.758 143.343 251.53 143.616 251.311 143.904C247.338 149.181 248.426 156.664 249.692 163.211C251.217 171.09 250.586 177.406 257.112 179.669C257.137 179.983 257.157 180.296 257.192 180.605C257.722 185.438 259.267 190.093 261.717 194.244C264.167 198.395 267.463 201.94 271.375 204.634L270.318 205.024C267.497 206.053 264.959 207.051 263.335 207.735C257.375 210.25 244.83 213.526 244.83 213.526C244.83 213.526 244.532 217.229 244.587 222.691C240.405 227.397 233.428 235.667 231.377 240.568C228.397 247.717 211.561 268.192 207.076 271.283C202.592 274.374 197.73 278.041 197.73 278.041C197.73 278.041 190.628 282.099 187.266 282.484C184.936 282.752 177.73 281.322 177.73 281.322C177.73 281.322 148.95 244.806 150.818 272.826C152.685 300.845 175.674 301.797 175.674 301.797L198.852 301.411C198.852 301.411 211.377 303.149 216.984 298.325C221.772 294.211 246.583 271.638 254.554 261.398C254.738 261.609 254.922 261.814 255.116 262.015C255.116 262.015 258.289 257.767 258.667 262.015C259.044 266.263 256.606 268.187 257.917 269.73C259.228 271.273 263.151 276.683 263.335 278.807C263.519 280.931 258.105 289.608 267.258 296.191C267.402 296.294 267.556 296.391 267.725 296.489C269.359 300.341 274.554 304.111 274.554 304.111L302.589 303.725L355.485 307.974C355.485 307.974 357.06 306.539 359.19 304.193C362.036 306.899 365.984 309.218 370.434 307.794C370.434 307.794 376.791 299.878 376.98 294.663C376.98 294.663 372.868 283.652 371.02 280.371C369.173 277.089 372.331 269.94 372.331 269.94C372.331 269.94 374.571 262.987 375.882 262.987C377.193 262.987 376.255 258.358 376.255 258.358C375.759 257.602 375.449 256.731 375.351 255.823C375.253 254.914 375.371 253.994 375.693 253.143C376.791 250.217 377.541 244.806 377.541 244.806Z" fill="url(#paint0_linear)"/>
<path d="M345.831 240.803L343.845 243.21L335.819 252.89L325.335 253.548L308.554 254.618C308.554 254.618 285.927 226.382 290.178 220.236C291.723 218.02 291.976 215.093 291.668 212.332C291.628 211.951 291.574 211.57 291.509 211.195C291.001 208.273 290.112 205.435 288.867 202.76L289.423 202.498L289.781 202.328L309.567 192.978L314.464 190.664C314.708 192.062 315.16 193.412 315.805 194.665C315.899 194.861 316.003 195.056 316.113 195.241C322.862 206.813 344.505 199.495 344.505 199.495L345.831 240.803Z" fill="#EE8E9E"/>
<path d="M375.087 226.357C374.938 233.362 373.835 236.386 373.835 236.386L345.83 240.804L344.783 233.274L340.636 203.542L344.529 199.51C346.085 199.858 347.697 199.831 349.24 199.431C350.784 199.032 352.219 198.27 353.434 197.206C357.511 193.555 371.978 193.94 374.203 211.607C374.856 216.493 375.152 221.424 375.087 226.357Z" fill="#EE8E9E"/>
<path d="M368.458 308.405C368.458 308.405 374.76 300.531 374.949 295.347L368.641 284.397L363.079 278.226L352.689 298.993C352.689 298.993 359.553 311.285 368.458 308.405Z" fill="#DFE5EE"/>
<path opacity="0.1" d="M368.458 308.405C368.458 308.405 374.76 300.531 374.949 295.347L368.641 284.397L363.079 278.226L352.689 298.993C352.689 298.993 359.553 311.285 368.458 308.405Z" fill="black"/>
<path d="M316.416 343.275C315.89 343.702 315.368 344.129 314.832 344.55C312.145 346.695 309.423 348.794 306.647 350.799C305.987 351.278 305.316 351.756 304.661 352.224H277.54H155.695H146.235L99.3622 350.486L61.6677 350.156L52.2316 349.642L5.15073 347.071C3.42594 341.203 2.12938 335.21 1.27202 329.142C1.07834 327.774 0.904515 326.401 0.775391 325.027L52.2118 327.979L61.6478 328.53L146.215 333.416L155.676 333.961L277.52 341.007L286.896 341.552H286.976L316.416 343.275Z" fill="#D48A9B"/>
<path d="M379.954 304.964C369.619 308.05 359.592 312.025 350.156 317.657C349.406 318.105 348.666 318.562 347.917 319.03C347.167 319.498 346.427 319.966 345.706 320.45C344.986 320.933 344.261 321.412 343.546 321.9L342.444 322.672L341.366 323.433C340.303 324.189 339.255 324.976 338.207 325.737L338.168 325.768C337.477 326.282 336.792 326.796 336.107 327.311C332.238 330.278 328.453 333.385 324.684 336.501C323.889 337.16 323.093 337.816 322.295 338.471L318.62 341.49C317.9 342.082 317.17 342.668 316.445 343.254C315.918 343.681 315.397 344.108 314.861 344.53L287.049 343.157H286.97L277.593 342.704L155.694 336.723L146.233 336.255L61.6666 332.094L52.2306 331.626L1.27097 329.142C1.07729 327.774 0.903464 326.4 0.774339 325.027C0.51609 322.672 0.324056 320.306 0.198242 317.93L52.2256 298.9L61.6617 295.439L70.2336 292.302L85.8527 293.145L121.953 295.064L146.248 296.385L155.709 296.9L161.753 297.229L163.198 297.311L214.064 300.063L214.6 300.099L237.296 301.323H237.555H237.704L239.973 301.441L247.711 301.863L257.385 302.377L260.574 302.552L261.174 302.588L265.684 302.83L266.97 302.896L271.276 303.133L272.989 303.231H273.044H273.402L277.429 303.452L283.667 303.791H283.697L285.634 303.894H285.842L286.999 303.961L289.84 304.115L292.323 304.249H292.348L295.134 304.398H295.179L297.29 304.517L298.909 304.604L304.655 304.918L305.688 304.974H306.045L306.542 305.005L308.226 305.098L308.98 305.139L314.841 305.453H315.377L324.028 305.375H324.088L356.98 305.098H357.611H358.276H360.233L370.821 305.01H372.401L379.954 304.964Z" fill="#EFC6CD"/>
<path d="M157.965 305.668L161.024 322.522L244.2 321.226C244.2 321.226 250.458 323.098 250.319 317.914C250.319 317.914 262.978 305.524 327.098 319.93L302.48 299.908L235.186 303.652L157.155 301.492L157.965 305.668Z" fill="#AD3637"/>
<path d="M159.494 301.636L162.414 319.93C162.414 319.93 233.93 317.77 245.173 319.786L236.676 303.077C236.676 303.077 193.434 298.9 159.494 301.636Z" fill="white"/>
<path opacity="0.1" d="M159.494 301.636L162.414 319.93C162.414 319.93 233.93 317.77 245.173 319.786L236.676 303.077C236.676 303.077 193.434 298.9 159.494 301.636Z" fill="black"/>
<path d="M160.562 301.569L163.442 318.583C163.442 318.583 234.048 316.577 245.173 318.449L236.795 302.912C236.795 302.912 194.074 299.024 160.562 301.569Z" fill="white"/>
<path opacity="0.1" d="M161.858 302.094L164.664 318.008C164.664 318.008 233.721 316.13 244.622 317.884L236.428 303.344C236.428 303.344 194.641 299.693 161.858 302.094Z" fill="black"/>
<path d="M162.414 301.513L165.235 317.457C165.235 317.457 234.292 315.579 245.193 317.333L236.979 302.778C236.979 302.778 195.197 299.132 162.414 301.513Z" fill="white"/>
<path d="M113.554 258.244C113.554 258.244 117.17 263.135 111.891 270.526C106.611 277.917 102.251 284.15 104.014 288.759C104.014 288.759 111.96 275.037 118.466 274.872C124.972 274.707 120.691 266.494 113.554 258.244Z" fill="#AD3637"/>
<path opacity="0.1" d="M113.555 258.244C113.873 258.719 114.122 259.238 114.295 259.787C120.622 267.501 123.995 274.702 117.911 274.856C112.244 275.021 105.45 285.512 103.821 288.166C103.878 288.365 103.942 288.565 104.015 288.768C104.015 288.768 111.961 275.046 118.467 274.882C124.973 274.717 120.692 266.493 113.555 258.244Z" fill="black"/>
<path d="M120.275 264.482C120.275 266.2 120.086 267.599 119.858 267.599C119.629 267.599 119.44 266.2 119.44 264.482C119.44 262.765 119.674 263.567 119.902 263.567C120.131 263.567 120.275 262.76 120.275 264.482Z" fill="#FFD037"/>
<path d="M122.579 266.535C121.119 267.363 119.847 267.862 119.738 267.651C119.629 267.44 120.731 266.623 122.181 265.779C123.631 264.936 123.065 265.553 123.174 265.779C123.284 266.005 124.039 265.712 122.579 266.535Z" fill="#FFD037"/>
<path d="M94.4689 258.244C94.4689 258.244 90.8534 263.135 96.1376 270.526C101.422 277.917 105.772 284.15 104.014 288.759C104.014 288.759 96.0433 275.037 89.5572 274.872C83.0711 274.707 87.3322 266.494 94.4689 258.244Z" fill="#AD3637"/>
<path opacity="0.1" d="M94.4689 258.244C94.1538 258.72 93.9047 259.239 93.7289 259.787C87.4018 267.501 84.0296 274.702 90.1134 274.856C95.7801 275.021 102.579 285.512 104.208 288.166C104.155 288.365 104.09 288.565 104.014 288.768C104.014 288.768 96.0433 275.046 89.5572 274.882C83.0711 274.717 87.3322 266.493 94.4689 258.244Z" fill="black"/>
<path d="M87.75 264.482C87.75 266.2 87.9387 267.599 88.1672 267.599C88.3956 267.599 88.5844 266.2 88.5844 264.482C88.5844 262.765 88.3509 263.567 88.1225 263.567C87.894 263.567 87.75 262.76 87.75 264.482Z" fill="#FFD037"/>
<path d="M85.4463 266.535C86.9064 267.363 88.1829 267.862 88.2921 267.651C88.4014 267.44 87.2988 266.623 85.8486 265.779C84.3983 264.936 84.9645 265.553 84.8552 265.779C84.746 266.005 83.9861 265.712 85.4463 266.535Z" fill="#FFD037"/>
<path d="M123.444 282.16L123.265 283.702L123.012 285.857L122.908 286.757L122.654 288.918L122.545 289.818L122.287 291.978L119.396 316.52C119.138 318.711 115.682 320.419 111.51 320.419H96.5015C92.3298 320.419 88.8782 318.711 88.6199 316.52L85.7245 291.978L85.4712 289.818L85.367 288.918L85.1087 286.757L85.0044 285.857L84.7511 283.702L84.5674 282.16C84.4234 280.92 86.2907 279.876 88.6547 279.876H119.376C121.735 279.876 123.608 280.92 123.444 282.16Z" fill="#65617D"/>
<path d="M123.279 283.688L123.026 285.848H85.0033L84.75 283.688H123.279Z" fill="#9D9CB5"/>
<path d="M122.922 286.747L122.669 288.907H85.3667L85.1084 286.747H122.922Z" fill="#9D9CB5"/>
<path d="M122.559 289.808L122.306 291.963H85.724L85.4707 289.808H122.559Z" fill="#9D9CB5"/>
<path d="M169.278 280.175C169.278 280.175 159.633 270.572 160.006 283.055C160.378 295.538 169.278 280.175 169.278 280.175Z" fill="#EE8E9E"/>
<path d="M255.886 258.281C255.673 259.248 254.635 260.853 253.016 262.864C244.653 273.294 220.859 294.972 216.195 298.994C210.633 303.798 198.207 302.08 198.207 302.08L175.213 302.466C175.213 302.466 152.402 301.504 150.545 273.664C148.687 245.824 177.249 282.114 177.249 282.114C177.249 282.114 184.401 283.534 186.71 283.266C190.047 282.886 197.095 278.853 197.095 278.853C197.095 278.853 201.917 275.202 206.367 272.131C210.817 269.061 227.509 248.699 230.479 241.592C232.361 237.081 238.425 229.706 242.611 224.923C245.015 222.171 246.798 220.294 246.798 220.294C246.798 220.294 257.183 252.325 255.886 258.281Z" fill="#EE8E9E"/>
<path opacity="0.1" d="M255.886 258.28C255.672 259.247 254.634 260.852 253.015 262.863C244.572 253.96 242.809 236.196 242.61 224.902C245.014 222.151 246.797 220.273 246.797 220.273C246.797 220.273 257.182 252.325 255.886 258.28Z" fill="black"/>
<path opacity="0.1" d="M343.84 243.211L335.819 252.89L325.335 253.548L308.554 254.618C308.554 254.618 285.927 226.383 290.178 220.237C291.723 218.02 291.976 215.094 291.668 212.332C291.628 211.952 291.574 211.571 291.509 211.196C291.001 208.273 290.112 205.436 288.867 202.761L289.423 202.499L289.781 202.329C290.664 204.877 291.274 207.517 291.599 210.203C291.653 210.568 291.703 210.949 291.753 211.34C291.926 212.728 292.085 214.271 292.249 215.968C293.541 231.511 302.982 237.358 307.243 239.22C308.613 239.818 309.952 240.49 311.255 241.231C315.355 243.572 320.083 244.457 324.714 243.751C335.233 242.321 343.81 234.406 343.81 234.406L343.854 242.198L343.84 243.211Z" fill="black"/>
<path d="M344.162 303.607C344.162 303.607 275.175 303.411 266.081 296.885C256.988 290.358 262.377 281.712 262.188 279.599C261.999 277.485 258.11 272.11 256.814 270.567C255.518 269.024 257.927 267.111 257.554 262.889C257.182 258.666 254.033 262.889 254.033 262.889C241.046 249.249 243.827 214.682 243.827 214.682C243.827 214.682 256.243 211.422 262.203 208.917C263.817 208.238 266.33 207.271 269.156 206.227L270.204 205.836C277.489 203.136 286.15 200.086 286.15 200.086C286.15 200.086 287.814 198.867 289.488 202.514C290.253 204.191 291.022 206.891 291.638 211.206C291.693 211.571 291.743 211.951 291.792 212.342C291.966 213.731 292.125 215.274 292.289 216.971C293.58 232.514 303.021 238.361 307.282 240.223C308.652 240.821 309.992 241.493 311.295 242.234C315.395 244.575 320.122 245.461 324.754 244.754C335.273 243.324 343.85 235.409 343.85 235.409L343.894 243.201L344.023 266.612L344.162 303.607Z" fill="#DFE5EE"/>
<path d="M341.194 273.262L340.081 280.561C340.081 280.561 312.632 287.663 301.88 289.777C291.128 291.891 267.94 289.201 266.271 293.809C264.602 298.417 273.318 304.759 273.318 304.759L301.13 304.373L353.614 308.601C353.614 308.601 373.644 290.353 367.153 277.675C360.662 264.997 341.194 273.262 341.194 273.262Z" fill="#EE8E9E"/>
<path opacity="0.1" d="M284.631 215.645C284.631 215.645 272.016 226.399 274.43 231.588C276.844 236.778 284.631 215.645 284.631 215.645Z" fill="black"/>
<path opacity="0.1" d="M269.051 235.039C269.051 235.039 256.253 257.895 256.998 259.623C257.743 261.351 261.264 267.497 261.075 262.889C260.887 258.281 269.051 235.039 269.051 235.039Z" fill="black"/>
<path opacity="0.1" d="M274.247 239.076C274.247 239.076 271.267 253.287 268.312 259.243C265.356 265.199 274.247 239.076 274.247 239.076Z" fill="black"/>
<path opacity="0.1" d="M316.138 195.257C313.685 199.914 310.192 203.895 305.949 206.868C301.707 209.84 296.839 211.718 291.753 212.343H291.693C283.692 213.316 275.631 211.13 269.116 206.222C276.566 203.435 286.111 200.081 286.111 200.081C286.111 200.081 287.775 198.863 289.448 202.509L314.489 190.68C314.77 192.295 315.328 193.845 316.138 195.257Z" fill="black"/>
<path d="M320.051 178.192C320.061 183.976 318.605 189.661 315.83 194.681C314.504 197.074 312.898 199.289 311.047 201.274C305.885 206.841 299.005 210.363 291.599 211.231H291.535C290.351 211.372 289.16 211.442 287.969 211.442C280.086 211.442 272.479 208.437 266.599 203C260.719 197.562 256.978 190.073 256.089 181.962C255.951 180.717 255.883 179.465 255.886 178.213C255.886 169.401 259.266 160.95 265.283 154.719C271.299 148.489 279.46 144.988 287.969 144.988C296.478 144.988 304.638 148.489 310.655 154.719C316.671 160.95 320.051 169.401 320.051 178.213V178.192Z" fill="#EE8E9E"/>
<path opacity="0.1" d="M340.825 241.062L343.805 236.433C343.805 236.433 360.124 216.267 376.086 229.135L375.53 246.807C375.53 246.807 374.785 252.181 373.673 255.035C373.353 255.882 373.237 256.797 373.334 257.701C373.43 258.605 373.738 259.471 374.229 260.225C374.229 260.225 375.157 264.853 373.861 264.853C372.565 264.853 370.335 271.766 370.335 271.766C370.335 271.766 367.182 278.873 369.039 282.139C370.896 285.405 374.974 296.349 374.974 296.349C374.974 296.349 368.483 292.317 366.625 285.595C366.625 285.595 350.862 272.918 338.62 280.967L340.825 241.062Z" fill="black"/>
<path opacity="0.1" d="M375.088 226.357C374.939 233.362 373.836 236.386 373.836 236.386L345.831 240.804L344.783 233.275C348.448 229.314 361.778 216.724 375.088 226.357Z" fill="black"/>
<path d="M340.825 240.032L343.805 235.403C343.805 235.403 360.124 215.237 376.086 228.105L375.53 245.776C375.53 245.776 374.785 251.151 373.673 254.005C373.353 254.852 373.237 255.767 373.334 256.671C373.43 257.575 373.738 258.441 374.229 259.195C374.229 259.195 375.157 263.824 373.861 263.824C372.565 263.824 370.335 270.736 370.335 270.736C370.335 270.736 367.182 277.844 369.039 281.109C370.896 284.375 374.974 295.32 374.974 295.32C374.974 295.32 368.483 291.288 366.625 284.566C366.625 284.566 350.862 271.888 338.62 279.937L340.825 240.032Z" fill="#DFE5EE"/>
<path opacity="0.1" d="M367.156 226.974C367.156 226.974 340.269 244.069 341.565 259.061C341.565 259.061 356.588 231.582 367.156 226.974Z" fill="black"/>
<path opacity="0.1" d="M343.835 243.216L343.964 266.627C338.879 266.864 334.086 266.18 330.297 262.77C327.66 260.394 326.125 257.112 325.33 253.564C324.739 250.704 324.522 247.776 324.685 244.856C324.682 244.827 324.682 244.798 324.685 244.769C324.998 238.304 326.433 231.839 325.678 225.416C324.923 218.992 321.164 212.213 315.025 210.861C313.813 210.588 312.453 210.49 311.588 209.57C310.635 208.541 310.68 206.942 310.784 205.517L310.963 203.115C311.007 202.498 311.027 201.886 311.027 201.274C311.024 195.814 309.189 190.524 305.838 186.308C302.487 182.093 297.826 179.213 292.652 178.161L292.453 178.125C290.725 177.765 288.927 177.41 287.199 177.822C283.911 178.609 281.785 181.91 278.756 183.479C272.945 186.483 263.256 183.196 257.172 182.162C256.775 182.096 256.397 182.018 256.035 181.931C255.897 180.686 255.829 179.434 255.831 178.182C255.833 173.093 256.964 168.073 259.137 163.508C261.309 158.944 264.465 154.957 268.361 151.856C272.257 148.754 276.789 146.621 281.607 145.621C286.425 144.621 291.401 144.78 296.15 146.086C300.899 147.392 305.295 149.811 308.999 153.156C312.703 156.5 315.615 160.681 317.511 165.375C319.408 170.07 320.237 175.153 319.936 180.232C319.635 185.311 318.212 190.251 315.775 194.67C315.869 194.866 315.974 195.061 316.083 195.246C322.832 206.818 344.476 199.5 344.476 199.5L345.777 240.793L343.835 243.216Z" fill="black"/>
<path d="M279.923 182.908C282.932 181.335 285.058 178.033 288.365 177.251C290.089 176.84 291.886 177.195 293.625 177.549L293.823 177.591C299.294 178.711 304.177 181.871 307.548 186.471C310.919 191.072 312.544 196.792 312.115 202.55L311.936 204.952C311.826 206.371 311.782 207.981 312.745 208.999C313.604 209.92 314.965 210.028 316.177 210.285C322.316 211.643 326.075 218.386 326.83 224.845C327.585 231.305 326.125 237.79 325.837 244.281C325.549 250.772 326.701 257.936 331.439 262.2C338.888 268.886 350.212 265.08 360.07 264.468C355.709 264.468 352.442 259.808 352.203 255.303C351.965 250.797 353.902 246.508 355.754 242.445C357.607 238.382 359.464 234.01 359.052 229.515C358.486 223.343 353.787 218.401 351.99 212.461C349.894 205.548 351.915 198.127 352.864 190.942C354.647 177.488 351.87 162.341 341.814 153.644C337.602 150.008 332.452 147.771 327.823 144.726C319.529 139.28 312.989 131.292 304.605 125.995C296.222 120.698 284.452 118.733 277.136 125.522C274.306 128.15 272.478 131.796 269.568 134.332C263.881 139.295 254.842 139.388 250.283 145.477C246.36 150.718 247.422 158.16 248.679 164.666C250.353 173.342 249.409 180.095 258.363 181.638C264.422 182.631 274.107 185.917 279.923 182.908Z" fill="#603556"/>
<path opacity="0.1" d="M353.704 260.322C346.527 261.233 339.415 261.701 334.191 257.01C329.453 252.746 328.286 245.587 328.589 239.091C328.892 232.596 330.342 226.105 329.582 219.651C328.822 213.196 325.068 206.453 318.929 205.096C317.717 204.828 316.362 204.73 315.497 203.81C314.539 202.781 314.579 201.177 314.688 199.757L314.867 197.355C315.296 191.598 313.671 185.878 310.3 181.279C306.929 176.68 302.046 173.521 296.576 172.401L296.377 172.36C294.639 172.005 292.841 171.65 291.118 172.062C287.83 172.848 285.704 176.176 282.675 177.719C276.859 180.728 267.18 177.441 261.086 176.407C252.147 174.89 253.08 168.127 251.402 159.435C250.463 154.58 249.634 149.2 250.905 144.603C250.667 144.865 250.438 145.117 250.22 145.431C246.296 150.671 247.359 158.113 248.616 164.619C250.289 173.296 249.346 180.049 258.3 181.592C264.389 182.62 274.073 185.912 279.889 182.903C282.898 181.329 285.024 178.028 288.331 177.246C290.055 176.834 291.853 177.189 293.591 177.544L293.789 177.585C299.26 178.706 304.143 181.866 307.514 186.466C310.885 191.066 312.51 196.787 312.081 202.545L311.902 204.946C311.793 206.366 311.748 207.976 312.711 208.994C313.57 209.915 314.931 210.023 316.143 210.28C322.281 211.638 326.041 218.38 326.796 224.84C327.551 231.3 326.096 237.785 325.803 244.276C325.51 250.766 326.667 257.931 331.405 262.194C338.854 268.88 350.177 265.074 360.036 264.462C357.359 264.478 355.109 262.719 353.704 260.322Z" fill="black"/>
<path d="M152.149 277.48L182.767 265.651C183.491 265.371 184.292 265.4 184.995 265.732C185.699 266.063 186.246 266.671 186.517 267.42C186.787 268.169 186.759 268.999 186.438 269.728C186.118 270.456 185.532 271.022 184.808 271.303L154.191 283.132L147.625 282.453L152.149 277.48Z" fill="#5C5C8E"/>
<path opacity="0.1" d="M185.592 266.453C185.862 267.203 185.833 268.034 185.512 268.762C185.19 269.49 184.603 270.056 183.878 270.336L153.241 282.206L148.315 281.692L147.604 282.474L154.17 283.153L184.787 271.324C185.511 271.043 186.097 270.476 186.417 269.748C186.738 269.02 186.766 268.19 186.496 267.441C186.27 266.816 185.851 266.286 185.304 265.934C185.414 266.098 185.51 266.272 185.592 266.453Z" fill="white"/>
<path d="M152.153 277.479L154.189 283.132L148.806 282.571L147.629 282.448L149.238 280.678L152.153 277.479Z" fill="#EFC8C4"/>
<path d="M149.233 280.663C149.359 280.761 149.466 280.881 149.551 281.018C149.601 281.1 149.628 281.196 149.628 281.293C149.628 281.391 149.601 281.486 149.551 281.568C149.466 281.659 149.367 281.734 149.258 281.789C149.135 281.875 149.032 281.987 148.956 282.119C148.88 282.251 148.834 282.398 148.821 282.551L147.639 282.432L149.233 280.663Z" fill="#727A9C"/>
<path d="M248.282 313.579C248.282 313.579 274.802 307.814 319.301 315.122L301.869 301.873L270.154 295.151L247.716 301.323L248.282 313.579Z" fill="white"/>
<path opacity="0.1" d="M248.282 313.579C248.282 313.579 274.802 307.814 319.301 315.122L301.869 301.873L270.154 295.151L247.716 301.323L248.282 313.579Z" fill="black"/>
<path d="M245.174 319.813C245.174 319.813 258.528 282.402 327.118 319.931L302.5 303.525C302.5 303.525 243.525 286.65 236.711 306.096L245.174 319.813Z" fill="white"/>
<path opacity="0.1" d="M245.173 319.787C245.173 319.787 258.528 279.789 327.118 320.507L302.5 302.712C302.5 302.712 243.505 282.53 236.676 303.653L245.173 319.787Z" fill="black"/>
<path d="M245.174 319.802C245.174 319.802 258.528 279.214 327.118 319.93L302.5 302.136C302.5 302.136 243.525 282.531 236.711 303.679L245.174 319.802Z" fill="white"/>
<path opacity="0.1" d="M245.173 319.812C245.173 319.812 258.527 274.703 327.118 320.506L302.48 300.485C302.48 300.485 243.504 279.913 236.69 303.653L245.173 319.812Z" fill="black"/>
<path d="M245.173 319.786C245.173 319.786 258.527 274.127 327.118 319.93L302.48 299.909C302.48 299.909 243.504 279.337 236.69 303.077L245.173 319.786Z" fill="white"/>
<path opacity="0.1" d="M450.949 315.487C450.949 315.487 434.485 333.75 449.305 342.622C449.305 342.622 451.242 345.039 454.008 343.774C454.008 343.774 453.075 342.915 454.947 341.259C455.609 340.665 456.201 339.992 456.71 339.253C457.401 338.257 457.76 337.055 457.733 335.828C457.733 335.828 459.889 328.582 453.04 319.175C453.04 319.175 452.419 316.027 451.893 315.683L450.641 320.07C450.641 320.07 453.785 320.898 454.967 323.377C454.967 323.377 450.825 320.008 450.422 320.713C450.343 320.857 449.861 323.073 449.861 323.073C449.861 323.073 455.324 324.534 457.033 328.422C457.033 328.422 452.618 323.726 449.673 323.912L449.136 327.296C449.136 327.296 454.982 328.551 457.083 332.902C457.083 332.902 452.305 328.155 449.057 328.047L448.962 331.446C448.962 331.446 454.639 332.783 456.372 336.414C456.372 336.414 450.318 331.513 448.992 332.228C448.992 332.228 449.087 335.36 449.489 336.178C449.489 336.178 453.541 337.206 454.366 339.439C454.366 339.439 449.985 336.605 449.608 337.037C449.608 337.037 450.785 341.079 452.424 342.802C452.424 342.802 449.822 340.441 449.007 337.258C449.007 337.258 447.904 339.248 448.183 341.203C448.183 341.203 446.559 339.341 448.734 336.276C448.734 336.276 447.939 333.087 448.138 332.583C448.138 332.583 445.58 335.293 444.925 337.726C444.925 337.726 444.428 334.681 448.133 331.703V328.278C448.133 328.278 444.567 331.678 443.832 333.781C443.832 333.781 443.782 330.592 448.207 327.419L448.704 324.092C448.704 324.092 445.416 326.776 444.11 328.936C444.11 328.936 444.676 325.964 448.878 323.145L449.459 320.965C449.459 320.965 447.095 322.97 446.479 323.608C445.863 324.246 445.63 324.122 445.63 324.122C446.597 322.398 448.007 320.985 449.702 320.039C449.702 320.039 451.222 315.606 450.949 315.487Z" fill="#AD3637"/>
<path opacity="0.1" d="M524.546 18.3193C524.546 18.3193 502.549 28.6055 512.919 42.6923C512.919 42.6923 513.808 45.701 516.828 45.6393C516.828 45.6393 516.286 44.4718 518.631 43.6901C519.464 43.4082 520.261 43.0231 521.005 42.5432C522.013 41.8995 522.792 40.9338 523.225 39.7916C523.225 39.7916 527.913 33.9697 525.097 22.5572C525.097 22.5572 525.698 19.4045 525.34 18.8748L522.549 22.4235C522.549 22.4235 525.142 24.4396 525.311 27.2014C525.311 27.2014 522.748 22.4389 522.112 22.9327C521.983 23.0304 520.717 24.8819 520.717 24.8819C520.717 24.8819 525.186 28.41 525.34 32.6839C525.34 32.6839 523.016 26.5842 520.225 25.5762L518.472 28.4872C518.472 28.4872 523.398 31.9793 523.726 36.8344C523.726 36.8344 521.084 30.5495 518.129 29.1506L516.773 32.2365C516.773 32.2365 521.516 35.7389 521.74 39.7814C521.74 39.7814 517.98 32.8382 516.49 32.9719C516.49 32.9719 515.412 35.8932 515.497 36.8138C515.497 36.8138 518.844 39.3853 518.785 41.7717C518.785 41.7717 515.805 37.4104 515.308 37.6573C515.308 37.6573 514.886 41.854 515.76 44.1015C515.76 44.1015 514.235 40.882 514.672 37.6213C514.672 37.6213 512.909 39.0202 512.442 40.9334C512.442 40.9334 511.638 38.5624 514.787 36.6029C514.787 36.6029 515.239 33.3474 515.611 32.9616C515.611 32.9616 512.239 34.4377 510.739 36.4024C510.739 36.4024 511.409 33.3937 515.944 32.1285L517.235 28.9809C517.235 28.9809 512.681 30.6884 511.216 32.3342C511.216 32.3342 512.358 29.3718 517.622 28.2197L519.316 25.3499C519.316 25.3499 515.283 26.5174 513.272 27.9832C513.272 27.9832 514.906 25.4733 519.832 24.5476L521.178 22.7681C521.178 22.7681 518.248 23.6733 517.429 24.0127C516.609 24.3522 516.435 24.1516 516.435 24.1516C517.979 22.942 519.817 22.2012 521.745 22.0121C521.745 22.0121 524.724 18.5251 524.546 18.3193Z" fill="#AD3637"/>
<path opacity="0.1" d="M315.776 24.6865C315.776 24.6865 282.728 34.4584 298.795 49.003C298.795 49.003 300.221 52.0889 304.795 52.0889C304.795 52.0889 303.941 50.8957 307.477 50.1705C308.694 49.9169 309.888 49.5521 311.043 49.0802C312.405 48.5858 313.565 47.6263 314.331 46.3595C314.331 46.3595 321.284 40.5992 316.72 28.9861C316.72 28.9861 317.549 25.818 316.993 25.2728L312.861 28.7804C312.861 28.7804 316.834 30.8942 317.167 33.6869C317.167 33.6869 313.159 28.8061 312.2 29.2844C312.006 29.3822 310.134 31.2131 310.134 31.2131C310.134 31.2131 317.028 34.9058 317.34 39.2312C317.34 39.2312 313.665 33.0029 309.394 31.9074L306.811 34.7978C306.811 34.7978 314.36 38.4648 314.981 43.3816C314.981 43.3816 310.819 36.9579 306.31 35.4613L304.323 38.5471C304.323 38.5471 311.594 42.2193 312.071 46.3132C312.071 46.3132 306.195 39.19 303.941 39.2774C303.941 39.2774 302.386 42.209 302.525 43.1399C302.525 43.1399 307.661 45.8554 307.636 48.2418C307.636 48.2418 302.997 43.7468 302.232 43.9834C302.232 43.9834 301.706 48.2161 303.086 50.5099C303.086 50.5099 300.692 47.2132 301.269 43.9319C301.269 43.9319 298.641 45.2948 297.981 47.2132C297.981 47.2132 296.699 44.8011 301.418 42.9085C301.418 42.9085 302.019 39.6272 302.57 39.2466C302.57 39.2466 297.504 40.6455 295.284 42.5896C295.284 42.5896 296.218 39.5655 303.052 38.4134L304.929 35.2658C304.929 35.2658 298.075 36.8705 295.9 38.4906C295.9 38.4906 297.554 35.5281 305.5 34.4995L307.983 31.6451C307.983 31.6451 301.904 32.7097 298.895 34.1395C298.895 34.1395 301.303 31.6451 308.738 30.8479L310.725 29.089C310.725 29.089 306.31 29.9222 305.078 30.241C303.846 30.5599 303.588 30.3542 303.588 30.3542C306.07 29.1097 308.778 28.4227 311.535 28.3381C311.535 28.3381 316.064 24.9025 315.776 24.6865Z" fill="#AD3637"/>
<path opacity="0.1" d="M413.269 406.005C413.269 406.005 429.906 387.906 415.171 378.885C415.171 378.885 413.255 376.448 410.478 377.682C410.478 377.682 411.407 378.551 409.52 380.192C408.853 380.779 408.254 381.445 407.737 382.177C407.036 383.166 406.666 384.365 406.684 385.592C406.684 385.592 404.454 392.818 411.218 402.292C411.218 402.292 411.809 405.445 412.331 405.799L413.627 401.423C413.627 401.423 410.488 400.564 409.331 398.074C409.331 398.074 413.438 401.479 413.845 400.78C413.93 400.636 414.431 398.429 414.431 398.429C414.431 398.429 408.969 396.886 407.31 393.008C407.31 393.008 411.68 397.75 414.63 397.591L415.196 394.212C415.196 394.212 409.366 392.9 407.295 388.554C407.295 388.554 412.028 393.348 415.276 393.492L415.4 390.087C415.4 390.087 409.733 388.668 408.015 385.016C408.015 385.016 414.024 389.984 415.355 389.28C415.355 389.28 415.291 386.153 414.859 385.33C414.859 385.33 410.816 384.229 410.012 382.018C410.012 382.018 414.367 384.898 414.744 384.466C414.744 384.466 413.607 380.413 411.983 378.674C411.983 378.674 414.566 381.061 415.35 384.25C415.35 384.25 416.473 382.27 416.209 380.315C416.209 380.315 417.819 382.198 415.613 385.237C415.613 385.237 416.378 388.436 416.175 388.935C416.175 388.935 418.757 386.25 419.433 383.848C419.433 383.848 419.929 386.898 416.17 389.835L416.12 393.26C416.12 393.26 419.716 389.897 420.471 387.798C420.471 387.798 420.471 390.992 416.036 394.119L415.539 397.442C415.539 397.442 418.852 394.788 420.178 392.643C420.178 392.643 419.582 395.606 415.355 398.383L414.754 400.559C414.754 400.559 417.138 398.578 417.774 397.946C418.41 397.313 418.628 397.432 418.628 397.432C417.646 399.148 416.222 400.547 414.516 401.474C414.516 401.474 413.021 405.882 413.269 406.005Z" fill="#AD3637"/>
<path opacity="0.1" d="M251.004 0.637864C251.004 0.637864 253.84 25.4481 269.951 19.4615C269.951 19.4615 272.986 19.4873 273.84 16.4837C273.84 16.4837 272.599 16.6688 272.589 14.1179C272.577 13.2104 272.462 12.3075 272.246 11.4281C271.96 10.2382 271.306 9.17787 270.384 8.40906C270.384 8.40906 266.43 2.02135 255.052 1.3939C255.052 1.3939 252.33 -0.149026 251.734 0.0464109L254.163 3.86772C254.163 3.86772 256.8 1.91335 259.392 2.58195C259.392 2.58195 254.237 3.68257 254.5 4.45403C254.55 4.61347 255.871 6.41869 255.871 6.41869C255.871 6.41869 260.515 3.02425 264.488 4.18145C264.488 4.18145 258.176 4.63404 256.408 7.08729L258.528 9.69998C258.528 9.69998 263.227 5.88381 267.801 7.02043C267.801 7.02043 261.215 7.74046 259.035 10.2349L261.508 12.5081C261.508 12.5081 266.157 8.87708 269.951 9.85427C269.951 9.85427 262.422 11.4795 262.094 12.9864C262.094 12.9864 264.463 14.9305 265.338 15.1362C265.338 15.1362 268.735 12.611 270.89 13.3824C270.89 13.3824 265.973 15.0179 266.048 15.5939C266.048 15.5939 269.788 17.2706 272.117 17.0854C272.117 17.0854 268.695 17.5997 265.824 16.2111C265.824 16.2111 266.579 18.3661 268.203 19.4101C268.203 19.4101 265.78 19.4873 264.92 15.81C264.92 15.81 262.06 14.3802 261.816 13.9019C261.816 13.9019 262.164 17.6718 263.52 19.7444C263.52 19.7444 260.947 18.2015 261.146 13.3207L258.662 11.0938C258.662 11.0938 258.866 16.1083 259.939 18.0523C259.939 18.0523 257.555 16.0311 258.071 10.4817L255.941 7.94618C255.941 7.94618 255.797 12.2767 256.542 14.7042C256.542 14.7042 254.719 12.3384 255.355 7.19529L254.118 5.32836C254.118 5.32836 254.073 8.49135 254.118 9.40682C254.163 10.3223 253.949 10.4097 253.949 10.4097C253.296 8.52526 253.162 6.49 253.562 4.53118C253.562 4.53118 251.252 0.51443 251.004 0.637864Z" fill="#AD3637"/>
<path opacity="0.1" d="M371.418 349.734C371.418 349.734 348.165 343.048 347.42 360.761C347.42 360.761 346.248 363.662 348.607 365.617C348.607 365.617 348.91 364.362 351.195 365.313C352.009 365.647 352.86 365.88 353.727 366.008C354.901 366.183 356.098 365.955 357.134 365.36C357.134 365.36 364.336 363.991 369.223 353.355C369.223 353.355 371.631 351.334 371.706 350.686L367.37 351.565C367.37 351.565 368.115 354.836 366.536 357.069C366.536 357.069 367.529 351.709 366.72 351.668C366.556 351.668 364.44 352.239 364.44 352.239C364.44 352.239 365.711 357.928 363.174 361.296C363.174 361.296 365.16 355.073 363.635 352.45L360.487 353.525C360.487 353.525 362.116 359.471 359.364 363.421C359.364 363.421 361.222 356.842 359.811 353.808L356.861 355.294C356.861 355.294 358.351 361.127 356.032 364.398C356.032 364.398 357.432 356.57 356.206 355.68C356.206 355.68 353.573 357.223 353.062 357.974C353.062 357.974 354.055 362.186 352.526 363.961C352.526 363.961 352.923 358.627 352.382 358.483C352.382 358.483 349.461 361.43 348.746 363.734C348.746 363.734 349.566 360.252 351.915 358.036C351.915 358.036 349.7 357.943 348.155 359.1C348.155 359.1 348.999 356.75 352.625 357.331C352.625 357.331 354.989 355.125 355.51 355.078C355.51 355.078 352.034 353.978 349.64 354.492C349.64 354.492 352.014 352.62 356.28 354.656L359.22 353.113C359.22 353.113 354.661 351.411 352.521 351.704C352.521 351.704 355.227 350.161 359.97 352.779L363.039 351.694C363.039 351.694 359.225 349.92 356.772 349.714C356.772 349.714 359.578 348.865 363.933 351.421L366.069 350.943C366.069 350.943 363.258 349.698 362.419 349.4C361.579 349.102 361.584 348.886 361.584 348.886C363.508 348.977 365.369 349.618 366.963 350.737C366.963 350.737 371.433 350.017 371.418 349.734Z" fill="#AD3637"/>
</g>
<defs>
<linearGradient id="paint0_linear" x1="264.413" y1="308.215" x2="264.413" y2="119.459" gradientUnits="userSpaceOnUse">
<stop stop-color="#808080" stop-opacity="0.25"/>
<stop offset="0.54" stop-color="#808080" stop-opacity="0.12"/>
<stop offset="1" stop-color="#808080" stop-opacity="0.1"/>
</linearGradient>
<clipPath id="clip0">
<rect width="526" height="406" fill="white"/>
</clipPath>
</defs>
</svg>
